<?xml version="1.0" encoding="utf-8"?>
<!-- Generator: Adobe Illustrator 24.0.3, SVG Export Plug-In . SVG Version: 6.00 Build 0)  -->
<svg version="1.1" id="Calque_1" xmlns="http://www.w3.org/2000/svg" xmlns:xlink="http://www.w3.org/1999/xlink" x="0px" y="0px"
	 viewBox="0 0 41 40" style="enable-background:new 0 0 41 40;" xml:space="preserve">
<style type="text/css">
	.st0{fill:url(#SVGID_1_);}
</style>
<linearGradient id="SVGID_1_" gradientUnits="userSpaceOnUse" x1="-644.1343" y1="392.371" x2="-644.1343" y2="391.371" gradientTransform="matrix(29.2509 0 0 -27.0017 18860.4902 10600.6826)">
	<stop  offset="0" style="stop-color:#44A781"/>
	<stop  offset="1" style="stop-color:#0D342C"/>
</linearGradient>
<path class="st0" d="M5.1,28.1C8.7,27.6,9,27.3,9,27.3c-1.1-5.2,1.6-10.6,5.4-13.8c5-4.2,12.7-1.1,18.7-7.5
	c1.4-1.5,0.6,16.6-6.9,23.4c-3.7,3.4-9,4.4-13.7,2.6c-1.1-0.6-2-1.4-2.7-2.4c-1.4,0.5-2.9,0.8-4.4,1C4.4,30.9,3.9,28.3,5.1,28.1z
	 M11.5,28.7C17,27,21.8,23,24.8,19.8c0.1-0.1,0.1-0.3,0-0.4c-0.1-0.1-0.3-0.1-0.4,0c-4,3.3-8.6,5.9-13.6,7.6
	C10.9,27.6,11.1,28.2,11.5,28.7L11.5,28.7z"/>
</svg>
