<svg xmlns="http://www.w3.org/2000/svg" xmlns:xlink="http://www.w3.org/1999/xlink" width="260" height="83" viewBox="0 0 260 83"><defs><style>.a{fill:#707070;font-size:40px;font-family:Pacifico-Regular, Pacifico;}.b{fill:url(#a);}</style><linearGradient id="a" x1="0.5" x2="0.5" y2="1" gradientUnits="objectBoundingBox"><stop offset="0" stop-color="#44a781"/><stop offset="1" stop-color="#0d342c"/></linearGradient></defs><text class="a" transform="translate(0 52)"><tspan x="0" y="0">Polo Jardinage</tspan></text><path class="b" d="M31.915,26.627C28.273,26.065,28,25.8,28,25.8c1.1-5.2-1.575-10.624-5.365-13.753-5.048-4.162-12.72-1.139-18.7-7.467-1.392-1.477-.584,16.559,6.9,23.393a13.152,13.152,0,0,0,13.676,2.644,7.829,7.829,0,0,0,2.721-2.384,20.634,20.634,0,0,0,4.359,1C32.618,29.362,33.138,26.817,31.915,26.627Zm-6.455.52c-5.463-1.638-10.216-5.7-13.3-8.873a.287.287,0,0,1,.387-.422,42.759,42.759,0,0,0,13.591,7.587A2.622,2.622,0,0,1,25.46,27.148Z" transform="translate(96.624 51.502)"/><path class="b" d="M4.087,26.627C7.729,26.065,8,25.8,8,25.8c-1.1-5.2,1.575-10.624,5.365-13.753,5.048-4.163,12.72-1.139,18.7-7.467,1.392-1.477.584,16.559-6.9,23.393A13.152,13.152,0,0,1,11.49,30.621a7.829,7.829,0,0,1-2.721-2.384,20.634,20.634,0,0,1-4.359,1C3.383,29.363,2.863,26.817,4.087,26.627Zm6.455.52c5.463-1.638,10.216-5.7,13.3-8.873a.287.287,0,0,0-.387-.422A42.759,42.759,0,0,1,9.859,25.439,2.622,2.622,0,0,0,10.541,27.148Z" transform="translate(126.785 51.502)"/></svg>