<svg xmlns="http://www.w3.org/2000/svg" width="695" height="413" viewBox="0 0 695 413"><defs><style>.a{fill:#fff;}</style></defs><g transform="translate(-2486 -4690.59) rotate(-14)"><path class="a" d="M5.82,70.442c12.526-1.676,13.469-2.452,13.469-2.452-3.772-15.505,5.416-31.66,18.45-40.985,17.362-12.4,43.743-3.394,64.3-22.252,4.788-4.4,2.007,49.345-23.721,69.712C59.5,89.342,37.352,84.774,31.283,82.344a25.855,25.855,0,0,1-9.358-7.1C11.89,77.965,6.932,78.216,6.932,78.216,3.4,78.593,1.613,71.008,5.82,70.442Zm22.2,1.551C46.807,67.111,63.153,55.021,73.744,45.55c.871-.775-.387-1.928-1.33-1.257A154.3,154.3,0,0,1,25.673,66.9,7.3,7.3,0,0,0,28.018,71.993Z" transform="translate(1664.519 5414.464) rotate(19)"/><g transform="translate(1780.409 5334)"><path class="a" d="M5.82,70.442c12.526-1.676,13.469-2.452,13.469-2.452-3.772-15.505,5.416-31.66,18.45-40.985,17.362-12.4,43.743-3.394,64.3-22.252,4.788-4.4,2.007,49.345-23.721,69.712C59.5,89.342,37.352,84.774,31.283,82.344a25.855,25.855,0,0,1-9.358-7.1C11.89,77.965,6.932,78.216,6.932,78.216,3.4,78.593,1.613,71.008,5.82,70.442Zm22.2,1.551C46.807,67.111,63.153,55.021,73.744,45.55c.871-.775-.387-1.928-1.33-1.257A154.3,154.3,0,0,1,25.673,66.9,7.3,7.3,0,0,0,28.018,71.993Z" transform="translate(-3.376 -4.499)"/></g><g transform="translate(1656.532 5303.172)"><path class="a" d="M101.523,70.442C89,68.766,88.054,67.99,88.054,67.99c3.772-15.505-5.416-31.66-18.45-40.984C52.242,14.6,25.861,23.612,5.307,4.754.52.354,3.3,54.1,29.029,74.465,47.841,89.342,69.991,84.774,76.06,82.343a25.855,25.855,0,0,0,9.358-7.1c10.035,2.724,14.992,2.975,14.992,2.975C103.941,78.593,105.73,71.008,101.523,70.442Zm-22.2,1.551C60.536,67.11,44.19,55.02,33.6,45.55c-.871-.775.387-1.928,1.33-1.257A154.3,154.3,0,0,0,81.67,66.9,7.3,7.3,0,0,1,79.325,71.992Z" transform="translate(107.585 17.277) rotate(104)"/></g><path class="a" d="M5.82,70.442c12.526-1.676,13.469-2.452,13.469-2.452-3.772-15.505,5.416-31.66,18.45-40.985,17.362-12.4,43.743-3.394,64.3-22.252,4.788-4.4,2.007,49.345-23.721,69.712C59.5,89.342,37.352,84.774,31.283,82.344a25.855,25.855,0,0,1-9.358-7.1C11.89,77.965,6.932,78.216,6.932,78.216,3.4,78.593,1.613,71.008,5.82,70.442Zm22.2,1.551C46.807,67.111,63.153,55.021,73.744,45.55c.871-.775-.387-1.928-1.33-1.257A154.3,154.3,0,0,1,25.673,66.9,7.3,7.3,0,0,0,28.018,71.993Z" transform="translate(1509.587 5480.658) rotate(30)"/></g><g transform="translate(-2711.14 -4670.893) rotate(-14)"><path class="a" d="M5.82,70.442c12.526-1.676,13.469-2.452,13.469-2.452-3.772-15.505,5.416-31.66,18.45-40.985,17.362-12.4,43.743-3.394,64.3-22.252,4.788-4.4,2.007,49.345-23.721,69.712C59.5,89.342,37.352,84.774,31.283,82.344a25.855,25.855,0,0,1-9.358-7.1C11.89,77.965,6.932,78.216,6.932,78.216,3.4,78.593,1.613,71.008,5.82,70.442Zm22.2,1.551C46.807,67.111,63.153,55.021,73.744,45.55c.871-.775-.387-1.928-1.33-1.257A154.3,154.3,0,0,1,25.673,66.9,7.3,7.3,0,0,0,28.018,71.993Z" transform="translate(1664.519 5414.464) rotate(19)"/><g transform="translate(1780.409 5334)"><path class="a" d="M5.82,70.442c12.526-1.676,13.469-2.452,13.469-2.452-3.772-15.505,5.416-31.66,18.45-40.985,17.362-12.4,43.743-3.394,64.3-22.252,4.788-4.4,2.007,49.345-23.721,69.712C59.5,89.342,37.352,84.774,31.283,82.344a25.855,25.855,0,0,1-9.358-7.1C11.89,77.965,6.932,78.216,6.932,78.216,3.4,78.593,1.613,71.008,5.82,70.442Zm22.2,1.551C46.807,67.111,63.153,55.021,73.744,45.55c.871-.775-.387-1.928-1.33-1.257A154.3,154.3,0,0,1,25.673,66.9,7.3,7.3,0,0,0,28.018,71.993Z" transform="translate(-3.376 -4.499)"/></g><path class="a" d="M101.523,70.442C89,68.766,88.054,67.99,88.054,67.99c3.772-15.505-5.416-31.66-18.45-40.984C52.242,14.6,25.861,23.612,5.307,4.754.52.354,3.3,54.1,29.029,74.465,47.841,89.342,69.991,84.774,76.06,82.343a25.855,25.855,0,0,0,9.358-7.1c10.035,2.724,14.992,2.975,14.992,2.975C103.941,78.593,105.73,71.008,101.523,70.442Zm-22.2,1.551C60.536,67.11,44.19,55.02,33.6,45.55c-.871-.775.387-1.928,1.33-1.257A154.3,154.3,0,0,0,81.67,66.9,7.3,7.3,0,0,1,79.325,71.992Z" transform="matrix(-0.07, 0.998, -0.998, -0.07, 1616.658, 5382.808)"/><g transform="translate(1649.503 5310.695)"><path class="a" d="M101.523,70.442C89,68.766,88.054,67.99,88.054,67.99c3.772-15.505-5.416-31.66-18.45-40.984C52.242,14.6,25.861,23.612,5.307,4.754.52.354,3.3,54.1,29.029,74.465,47.841,89.342,69.991,84.774,76.06,82.343a25.855,25.855,0,0,0,9.358-7.1c10.035,2.724,14.992,2.975,14.992,2.975C103.941,78.593,105.73,71.008,101.523,70.442Zm-22.2,1.551C60.536,67.11,44.19,55.02,33.6,45.55c-.871-.775.387-1.928,1.33-1.257A154.3,154.3,0,0,0,81.67,66.9,7.3,7.3,0,0,1,79.325,71.992Z" transform="translate(107.585 17.277) rotate(104)"/></g><path class="a" d="M5.82,70.442c12.526-1.676,13.469-2.452,13.469-2.452-3.772-15.505,5.416-31.66,18.45-40.985,17.362-12.4,43.743-3.394,64.3-22.252,4.788-4.4,2.007,49.345-23.721,69.712C59.5,89.342,37.352,84.774,31.283,82.344a25.855,25.855,0,0,1-9.358-7.1C11.89,77.965,6.932,78.216,6.932,78.216,3.4,78.593,1.613,71.008,5.82,70.442Zm22.2,1.551C46.807,67.111,63.153,55.021,73.744,45.55c.871-.775-.387-1.928-1.33-1.257A154.3,154.3,0,0,1,25.673,66.9,7.3,7.3,0,0,0,28.018,71.993Z" transform="translate(1509.587 5480.658) rotate(30)"/></g></svg>