<?xml version="1.0" encoding="utf-8"?>
<!-- Generator: Adobe Illustrator 24.0.3, SVG Export Plug-In . SVG Version: 6.00 Build 0)  -->
<svg version="1.1" id="Calque_1" xmlns="http://www.w3.org/2000/svg" xmlns:xlink="http://www.w3.org/1999/xlink" x="0px" y="0px"
	 viewBox="0 0 591 377" style="enable-background:new 0 0 591 377;" xml:space="preserve">
<style type="text/css">
	.st0{fill:#fff;}
</style>
<g transform="translate(-2486 -4690.59) rotate(-14)">
	<path class="st0" d="M1597.5,5455.3c12.3,2.5,13.4,2,13.4,2c1.5-15.9,15.3-28.2,30.6-32.8c20.3-6.1,42,10.9,67.4-0.3
		c5.9-2.6-14.1,47.3-44.8,58.2c-22.4,8-41.7-3.5-46.6-7.8c-2.9-2.7-5.1-6-6.5-9.7c-10.3-0.7-15-2-15-2
		C1592.5,5462.2,1593.3,5454.5,1597.5,5455.3z M1617.7,5463.9c19.2,1.5,38.4-4.7,51.4-10.2c1.1-0.5,0.3-1.9-0.8-1.6
		c-16.6,5-33.8,7.1-51.1,6.3C1616.6,5460.2,1616.8,5462.2,1617.7,5463.9L1617.7,5463.9z"/>
	<g transform="translate(1780.409 5334)">
		<path class="st0" d="M-48.3,38.1c12.4-1.7,13.3-2.5,13.3-2.5c-3.7-15.5,5.4-31.6,18.4-41C0.6-17.7,26.7-8.8,47.1-27.7
			C51.8-32.1,49,21.6,23.5,42C4.8,56.9-17.1,52.4-23.1,50c-3.6-1.6-6.7-4-9.3-7.1c-9.9,2.7-14.9,3-14.9,3
			C-50.7,46.3-52.5,38.7-48.3,38.1z M-26.3,39.6c18.6-4.9,34.8-17,45.3-26.5c0.9-0.8-0.4-1.9-1.3-1.3C3.6,22-12.1,29.7-28.7,34.5
			C-28.6,36.5-27.8,38.3-26.3,39.6L-26.3,39.6z"/>
	</g>
	<g transform="translate(1656.532 5303.172)">
		<path class="st0" d="M-35,71.2c4.6-11.7,5.6-12.5,5.6-12.5c14,7.4,31.7,2.3,43.8-8.1C30.5,36.8,28.2,9,51.3-6.4
			C56.7-10,4.4-20.1-21.4-0.1c-18.8,14.7-19.8,37.2-18.9,43.7c0.7,3.9,2.2,7.6,4.6,10.8c-5,9.1-6.5,13.8-6.5,13.8
			C-43.4,71.6-36.6,75.1-35,71.2z M-31.1,49.3c9.2-17,24.8-30,36.4-38c1-0.7,1.8,0.8,0.9,1.6C-7,24.2-18.1,37.7-26.8,52.8
			C-28.7,52.2-30.2,51-31.1,49.3L-31.1,49.3z"/>
	</g>
	<path class="st0" d="M1431.3,5517.2c11.6,4.8,12.8,4.6,12.8,4.6c4.5-15.3,20.4-24.7,36.2-26.3c21-2.1,39.2,18.8,66.1,12.7
		c6.3-1.4-22.8,43.7-55,48.6c-23.5,3.5-40.2-11.4-44.2-16.6c-2.3-3.2-3.8-6.9-4.5-10.8c-9.9-2.6-14.3-4.9-14.3-4.9
		C1425.1,5523,1427.4,5515.6,1431.3,5517.2z M1449.5,5529.5c18.5,5.1,38.5,2.8,52.3-0.2c1.1-0.2,0.6-1.9-0.5-1.8
		c-17.2,1.7-34.5,0.5-51.3-3.7C1449.1,5525.7,1448.9,5527.7,1449.5,5529.5L1449.5,5529.5z"/>
</g>
<g transform="translate(-2711.14 -4670.893) rotate(-14)">
	<path class="st0" d="M1599.7,5455.8c12.3,2.5,13.4,2,13.4,2c1.5-15.9,15.3-28.2,30.6-32.8c20.3-6.1,42,10.9,67.4-0.3
		c5.9-2.6-14.1,47.3-44.8,58.2c-22.4,8-41.7-3.5-46.6-7.8c-2.9-2.7-5.1-6-6.5-9.7c-10.3-0.7-15-2-15-2
		C1594.8,5462.8,1595.6,5455,1599.7,5455.8z M1620,5464.5c19.2,1.5,38.4-4.7,51.4-10.2c1.1-0.5,0.3-1.9-0.8-1.6
		c-16.6,5-33.8,7.1-51.1,6.3C1618.9,5460.8,1619.1,5462.8,1620,5464.5L1620,5464.5z"/>
	<g transform="translate(1780.409 5334)">
		<path class="st0" d="M-46.1,38.7c12.4-1.7,13.3-2.5,13.3-2.5c-3.7-15.5,5.4-31.6,18.4-41C2.8-17.2,28.9-8.3,49.3-27.1
			c4.8-4.4,1.9,49.3-23.6,69.6C7,57.4-14.9,52.9-20.9,50.5c-3.6-1.6-6.7-4-9.3-7.1c-9.9,2.7-14.9,3-14.9,3
			C-48.5,46.8-50.3,39.2-46.1,38.7z M-24.1,40.2c18.6-4.9,34.8-17,45.3-26.5c0.9-0.8-0.4-1.9-1.3-1.3C5.8,22.5-9.8,30.2-26.4,35.1
			C-26.4,37-25.5,38.8-24.1,40.2L-24.1,40.2z"/>
	</g>
	<path class="st0" d="M1492.9,5452.3c2.6-12.4,3.4-13.3,3.4-13.3c15.1,4.8,31.7-3.3,41.8-15.6c13.5-16.5,6.5-43.4,26.6-62.6
		c4.7-4.5-48.6-5.3-70.6,18.9c-16,17.7-13.1,40.1-11.1,46.3c1.3,3.7,3.5,7.1,6.3,9.8c-3.4,9.8-4,14.7-4,14.7
		C1484.7,5454.2,1492.1,5456.5,1492.9,5452.3z M1493,5430.1c6.2-18.4,19.3-33.9,29.4-43.8c0.8-0.8,1.9,0.5,1.1,1.4
		c-11,13.5-19.7,28.7-25.7,45C1495.9,5432.6,1494.2,5431.6,1493,5430.1L1493,5430.1z"/>
	<g transform="translate(1649.503 5310.695)">
		<path class="st0" d="M-32.7,71.7c4.6-11.7,5.6-12.5,5.6-12.5c14,7.4,31.7,2.3,43.8-8.1c16.1-13.9,13.8-41.6,36.9-57
			C59-9.4,6.7-19.6-19.1,0.5C-37.9,15.1-38.9,37.7-38,44.2c0.7,3.9,2.2,7.6,4.6,10.8c-5,9.1-6.5,13.8-6.5,13.8
			C-41.1,72.1-34.3,75.6-32.7,71.7z M-28.9,49.8c9.2-17,24.8-30,36.4-38c1-0.7,1.8,0.8,0.9,1.6c-13.1,11.3-24.3,24.8-33,39.9
			C-26.4,52.8-27.9,51.5-28.9,49.8L-28.9,49.8z"/>
	</g>
	<path class="st0" d="M1433.5,5517.7c11.6,4.8,12.8,4.6,12.8,4.6c4.5-15.3,20.4-24.7,36.2-26.3c21-2.1,39.2,18.8,66.1,12.7
		c6.3-1.4-22.8,43.7-55,48.6c-23.5,3.5-40.2-11.4-44.2-16.6c-2.3-3.2-3.8-6.9-4.5-10.8c-9.9-2.6-14.3-4.9-14.3-4.9
		C1427.4,5523.6,1429.6,5516.1,1433.5,5517.7z M1451.8,5530.1c18.5,5.1,38.5,2.8,52.3-0.2c1.1-0.2,0.6-1.9-0.5-1.7
		c-17.2,1.7-34.5,0.5-51.3-3.7C1451.4,5526.2,1451.2,5528.2,1451.8,5530.1L1451.8,5530.1z"/>
</g>
</svg>
